<svg viewBox="-1000 -1000 2000 2000" version="1.1" xmlns="http://www.w3.org/2000/svg" xmlns:xlink="http://www.w3.org/1999/xlink">
	<polyline points= "-600.0,-670.0 -230.0,-670.0 -230.0,-360.0 -200.0,-300.0 -230.0,-360.0 -230.0,-760.0 -200.0,-820.0 -200.0,-1190.0 -66.66666666666669,-1190.0 -66.66666666666669,-1220.0 66.66666666666666,-1220.0 66.66666666666666,-1190.0 200.0,-1190.0 200.0,-820.0 230.0,-760.0 230.0,-360.0 200.0,-330.0 230.0,-360.0 230.0,-700.0 600.0,-700.0 600.0,100.0 550.0,330.0 550.0,700.0 230.0,700.0 230.0,360.0 200.0,330.0 230.0,360.0 230.0,710.0 200.0,770.0 200.0,1090.0 66.66666666666666,1090.0 66.66666666666666,1120.0 -66.66666666666666,1120.0 -66.66666666666666,1090.0 -200.0,1090.0 -200.0,770.0 -230.0,710.0 -230.0,360.0 -200.0,300.0 -230.0,360.0 -230.0,670.0 -550.0,670.0 -550.0,300.0 -600.0,100.0 -600.0,-670.0" fill="none" stroke="black"/>
	<line x1="-200.0" y1="-820.0" x2="200.0" y2="-820.0" stroke="black" stroke-dasharray="11"/>
	<line x1="-200.0" y1="-760.0" x2="200.0" y2="-760.0" stroke="black" stroke-dasharray="11"/>
	<line x1="-200.0" y1="-360.0" x2="200.0" y2="-360.0" stroke="black" stroke-dasharray="11"/>
	<line x1="-200.0" y1="770.0" x2="200.0" y2="770.0" stroke="black" stroke-dasharray="11"/>
	<line x1="-200.0" y1="710.0" x2="200.0" y2="710.0" stroke="black" stroke-dasharray="11"/>
	<line x1="-200.0" y1="360.0" x2="200.0" y2="360.0" stroke="black" stroke-dasharray="11"/>
	<line x1="-200.0" y1="-300.0" x2="-600.0" y2="-300.0" stroke="black" stroke-dasharray="11"/>
	<line x1="-200.0" y1="300.0" x2="-550.0" y2="300.0" stroke="black" stroke-dasharray="11"/>
	<line x1="200.0" y1="-330.0" x2="600.0" y2="-330.0" stroke="black" stroke-dasharray="11"/>
	<line x1="200.0" y1="330.0" x2="550.0" y2="330.0" stroke="black" stroke-dasharray="11"/>
	<line x1="-200.0" y1="-300.0" x2="-200.0" y2="300.0" stroke="black" stroke-dasharray="11"/>
	<line x1="200.0" y1="-330.0" x2="200.0" y2="330.0" stroke="black" stroke-dasharray="11"/>
	<rect x="-66.666667" y="-300.000000" width="133.333333" height="30.000000" stroke="black" fill="none"/>
	<rect x="-66.666667" y="270.000000" width="133.333333" height="30.000000" stroke="black" fill="none"/>
	<text x="0" y="-390.000000" transform="rotate(180, 0, 0)"   style="fill: none; stroke: black;  font-size: 30.000000px;" text-anchor="middle">Digital Manufacturing</text>
	<image href="logo.svg" x="-87.500000" y="-595.000000" transform="rotate(180 0 0)" height="175.000000" width="175.000000"/>
	<circle cx="430.000000" cy="-100.000000" r="100.000000" stroke="black" text-anchor="middle" fill="none"/>
	<circle cx="330.000000" cy="-100.000000" r="50.000000" stroke="black" text-anchor="middle" fill="none"/>
	<circle cx="280.000000" cy="-100.000000" r="25.000000" stroke="black" text-anchor="middle" fill="none"/>
	<circle cx="255.000000" cy="-100.000000" r="12.500000" stroke="black" text-anchor="middle" fill="none"/>
	<circle cx="280.000000" cy="-125.000000" r="12.500000" stroke="black" text-anchor="middle" fill="none"/>
	<circle cx="280.000000" cy="-75.000000" r="12.500000" stroke="black" text-anchor="middle" fill="none"/>
	<circle cx="330.000000" cy="-150.000000" r="25.000000" stroke="black" text-anchor="middle" fill="none"/>
	<circle cx="305.000000" cy="-150.000000" r="12.500000" stroke="black" text-anchor="middle" fill="none"/>
	<circle cx="330.000000" cy="-175.000000" r="12.500000" stroke="black" text-anchor="middle" fill="none"/>
	<circle cx="330.000000" cy="-125.000000" r="12.500000" stroke="black" text-anchor="middle" fill="none"/>
	<circle cx="330.000000" cy="-50.000000" r="25.000000" stroke="black" text-anchor="middle" fill="none"/>
	<circle cx="305.000000" cy="-50.000000" r="12.500000" stroke="black" text-anchor="middle" fill="none"/>
	<circle cx="330.000000" cy="-75.000000" r="12.500000" stroke="black" text-anchor="middle" fill="none"/>
	<circle cx="330.000000" cy="-25.000000" r="12.500000" stroke="black" text-anchor="middle" fill="none"/>
	<circle cx="430.000000" cy="-200.000000" r="50.000000" stroke="black" text-anchor="middle" fill="none"/>
	<circle cx="380.000000" cy="-200.000000" r="25.000000" stroke="black" text-anchor="middle" fill="none"/>
	<circle cx="355.000000" cy="-200.000000" r="12.500000" stroke="black" text-anchor="middle" fill="none"/>
	<circle cx="380.000000" cy="-225.000000" r="12.500000" stroke="black" text-anchor="middle" fill="none"/>
	<circle cx="380.000000" cy="-175.000000" r="12.500000" stroke="black" text-anchor="middle" fill="none"/>
	<circle cx="430.000000" cy="-250.000000" r="25.000000" stroke="black" text-anchor="middle" fill="none"/>
	<circle cx="405.000000" cy="-250.000000" r="12.500000" stroke="black" text-anchor="middle" fill="none"/>
	<circle cx="430.000000" cy="-275.000000" r="12.500000" stroke="black" text-anchor="middle" fill="none"/>
	<circle cx="430.000000" cy="-225.000000" r="12.500000" stroke="black" text-anchor="middle" fill="none"/>
	<circle cx="430.000000" cy="-150.000000" r="25.000000" stroke="black" text-anchor="middle" fill="none"/>
	<circle cx="405.000000" cy="-150.000000" r="12.500000" stroke="black" text-anchor="middle" fill="none"/>
	<circle cx="430.000000" cy="-175.000000" r="12.500000" stroke="black" text-anchor="middle" fill="none"/>
	<circle cx="430.000000" cy="-125.000000" r="12.500000" stroke="black" text-anchor="middle" fill="none"/>
	<circle cx="430.000000" cy="0.000000" r="50.000000" stroke="black" text-anchor="middle" fill="none"/>
	<circle cx="380.000000" cy="0.000000" r="25.000000" stroke="black" text-anchor="middle" fill="none"/>
	<circle cx="355.000000" cy="0.000000" r="12.500000" stroke="black" text-anchor="middle" fill="none"/>
	<circle cx="380.000000" cy="-25.000000" r="12.500000" stroke="black" text-anchor="middle" fill="none"/>
	<circle cx="380.000000" cy="25.000000" r="12.500000" stroke="black" text-anchor="middle" fill="none"/>
	<circle cx="430.000000" cy="-50.000000" r="25.000000" stroke="black" text-anchor="middle" fill="none"/>
	<circle cx="405.000000" cy="-50.000000" r="12.500000" stroke="black" text-anchor="middle" fill="none"/>
	<circle cx="430.000000" cy="-75.000000" r="12.500000" stroke="black" text-anchor="middle" fill="none"/>
	<circle cx="430.000000" cy="-25.000000" r="12.500000" stroke="black" text-anchor="middle" fill="none"/>
	<circle cx="430.000000" cy="50.000000" r="25.000000" stroke="black" text-anchor="middle" fill="none"/>
	<circle cx="405.000000" cy="50.000000" r="12.500000" stroke="black" text-anchor="middle" fill="none"/>
	<circle cx="430.000000" cy="25.000000" r="12.500000" stroke="black" text-anchor="middle" fill="none"/>
	<circle cx="430.000000" cy="75.000000" r="12.500000" stroke="black" text-anchor="middle" fill="none"/>
</svg>