<svg viewBox="-500 -500 1000 1000" xmlns="http://www.w3.org/2000/svg" xmlns:xlink="http://www.w3.org/1999/xlink">
	<polyline points= "-260.0,-356.0 -120.0,-356.0 -120.0,-120.0 -120.0,-412.0 -40.0,-412.0 -40.0,-416.0 40.0,-416.0 40.0,-412.0 120.0,-412.0 120.0,-124.0 120.0,-360.0 260.0,-360.0 260.0,0.0 240.0,124.0 240.0,360.0 120.0,360.0 120.0,124.0 120.0,372.0 40.0,372.0 40.0,376.0 -40.0,376.0 -40.0,372.0 -120.0,372.0 -120.0,120.0 -120.0,356.0 -240.0,356.0 -240.0,120.0 -260.0,0.0 -260.0,-356.0" fill="none" stroke="black" stroke-width="0.2"/>
	<line x1="-120.0" y1="-276.0" x2="120.0" y2="-276.0" stroke="black" stroke-dasharray="11" stroke-width="0.2"/>
	<line x1="-120.0" y1="-268.0" x2="120.0" y2="-268.0" stroke="black" stroke-dasharray="11" stroke-width="0.2"/>
	<line x1="-120.0" y1="-128.0" x2="120.0" y2="-128.0" stroke="black" stroke-dasharray="11" stroke-width="0.2"/>
	<line x1="-120.0" y1="256.0" x2="120.0" y2="256.0" stroke="black" stroke-dasharray="11" stroke-width="0.2"/>
	<line x1="-120.0" y1="248.0" x2="120.0" y2="248.0" stroke="black" stroke-dasharray="11" stroke-width="0.2"/>
	<line x1="-120.0" y1="128.0" x2="120.0" y2="128.0" stroke="black" stroke-dasharray="11" stroke-width="0.2"/>
	<line x1="-120.0" y1="-120.0" x2="-260.0" y2="-120.0" stroke="black" stroke-dasharray="11" stroke-width="0.2"/>
	<line x1="-120.0" y1="120.0" x2="-240.0" y2="120.0" stroke="black" stroke-dasharray="11" stroke-width="0.2"/>
	<line x1="120.0" y1="-124.0" x2="260.0" y2="-124.0" stroke="black" stroke-dasharray="11" stroke-width="0.2"/>
	<line x1="120.0" y1="124.0" x2="240.0" y2="124.0" stroke="black" stroke-dasharray="11" stroke-width="0.2"/>
	<line x1="-120.0" y1="-120.0" x2="-120.0" y2="120.0" stroke="black" stroke-dasharray="11" stroke-width="0.2"/>
	<line x1="120.0" y1="-124.0" x2="120.0" y2="124.0" stroke="black" stroke-dasharray="11" stroke-width="0.2"/>
	<rect x="-40.000000" y="-120.000000" width="80.000000" height="4.000000" stroke="black" fill="none" stroke-width="0.2"/>
	<rect x="-40.000000" y="116.000000" width="80.000000" height="4.000000" stroke="black" fill="none" stroke-width="0.2"/>
	<text x="0" y="-148.000000" transform="rotate(180, 0, 0)"  stroke-width="0.2" style="fill: none; stroke: blue;  font-size: 11px;" text-anchor="middle">Digital Manufacturing</text>
	<image xlink:href="Columbia_Engineering_logo.svg" x="-30.000000" y="-224.000000" transform="rotate(180 0 0)" height="60.000000" width="60.000000"/>
</svg>