<svg viewBox="-500 -500 1000 1000" xmlns="http://www.w3.org/2000/svg" xmlns:xlink="http://www.w3.org/1999/xlink">
	<rect x="-500" y="-500" width="100%" height="100%" stroke="black" stroke-width="1" fill="none"/>
	<polyline points= "-200.0,-295.0 -60.0,-295.0 -60.0,-180.0 -60.0,-475.0 -20.0,-475.0 -20.0,-480.0 20.0,-480.0 20.0,-475.0 60.0,-475.0 60.0,-185.0 60.0,-300.0 200.0,-300.0 200.0,60.0 120.0,185.0 120.0,300.0 60.0,300.0 60.0,185.0 60.0,395.0 20.0,395.0 20.0,400.0 -20.0,400.0 -20.0,395.0 -60.0,395.0 -60.0,180.0 -60.0,295.0 -120.0,295.0 -120.0,180.0 -200.0,60.0 -200.0,-295.0" fill="none" stroke="black" />
	<line x1="-60.0" y1="-340.0" x2="60.0" y2="-340.0" stroke="black" stroke-dasharray="11" />
	<line x1="-60.0" y1="-330.0" x2="60.0" y2="-330.0" stroke="black" stroke-dasharray="11" />
	<line x1="-60.0" y1="-190.0" x2="60.0" y2="-190.0" stroke="black" stroke-dasharray="11" />
	<line x1="-60.0" y1="340.0" x2="60.0" y2="340.0" stroke="black" stroke-dasharray="11" />
	<line x1="-60.0" y1="330.0" x2="60.0" y2="330.0" stroke="black" stroke-dasharray="11" />
	<line x1="-60.0" y1="190.0" x2="60.0" y2="190.0" stroke="black" stroke-dasharray="11" />
	<line x1="-60.0" y1="-180.0" x2="-200.0" y2="-180.0" stroke="black" stroke-dasharray="11" />
	<line x1="-60.0" y1="180.0" x2="-120.0" y2="180.0" stroke="black" stroke-dasharray="11" />
	<line x1="60.0" y1="-185.0" x2="200.0" y2="-185.0" stroke="black" stroke-dasharray="11" />
	<line x1="60.0" y1="185.0" x2="120.0" y2="185.0" stroke="black" stroke-dasharray="11" />
	<line x1="-60.0" y1="-180.0" x2="-60.0" y2="180.0" stroke="black" stroke-dasharray="11" />
	<line x1="60.0" y1="-185.0" x2="60.0" y2="185.0" stroke="black" stroke-dasharray="11" />
	<rect x="-20.000000" y="-180.000000" width="40.000000" height="5.000000" stroke="black" fill="none"/>
	<rect x="-20.000000" y="175.000000" width="40.000000" height="5.000000" stroke="black" fill="none"/>
</svg>