<svg viewBox="-1000 -1000 2000 2000" version="1.1" xmlns="http://www.w3.org/2000/svg" xmlns:xlink="http://www.w3.org/1999/xlink">
	<polyline points= "-550.0,-620.0 -280.0,-620.0 -280.0,-210.0 -250.0,-150.0 -280.0,-210.0 -280.0,-510.0 -250.0,-570.0 -250.0,-840.0 -83.33333333333334,-840.0 -83.33333333333334,-870.0 83.33333333333333,-870.0 83.33333333333333,-840.0 250.0,-840.0 250.0,-570.0 280.0,-510.0 280.0,-210.0 250.0,-180.0 280.0,-210.0 280.0,-650.0 550.0,-650.0 550.0,-50.0 450.0,180.0 450.0,650.0 280.0,650.0 280.0,210.0 250.0,180.0 280.0,210.0 280.0,410.0 250.0,470.0 250.0,640.0 83.33333333333333,640.0 83.33333333333333,670.0 -83.33333333333333,670.0 -83.33333333333333,640.0 -250.0,640.0 -250.0,470.0 -280.0,410.0 -280.0,210.0 -250.0,150.0 -280.0,210.0 -280.0,620.0 -450.0,620.0 -450.0,150.0 -550.0,-50.0 -550.0,-620.0" fill="none" stroke="black"/>
	<line x1="-250.0" y1="-570.0" x2="250.0" y2="-570.0" stroke="black" stroke-dasharray="11"/>
	<line x1="-250.0" y1="-510.0" x2="250.0" y2="-510.0" stroke="black" stroke-dasharray="11"/>
	<line x1="-250.0" y1="-210.0" x2="250.0" y2="-210.0" stroke="black" stroke-dasharray="11"/>
	<line x1="-250.0" y1="470.0" x2="250.0" y2="470.0" stroke="black" stroke-dasharray="11"/>
	<line x1="-250.0" y1="410.0" x2="250.0" y2="410.0" stroke="black" stroke-dasharray="11"/>
	<line x1="-250.0" y1="210.0" x2="250.0" y2="210.0" stroke="black" stroke-dasharray="11"/>
	<line x1="-250.0" y1="-150.0" x2="-550.0" y2="-150.0" stroke="black" stroke-dasharray="11"/>
	<line x1="-250.0" y1="150.0" x2="-450.0" y2="150.0" stroke="black" stroke-dasharray="11"/>
	<line x1="250.0" y1="-180.0" x2="550.0" y2="-180.0" stroke="black" stroke-dasharray="11"/>
	<line x1="250.0" y1="180.0" x2="450.0" y2="180.0" stroke="black" stroke-dasharray="11"/>
	<line x1="-250.0" y1="-150.0" x2="-250.0" y2="150.0" stroke="black" stroke-dasharray="11"/>
	<line x1="250.0" y1="-180.0" x2="250.0" y2="180.0" stroke="black" stroke-dasharray="11"/>
	<rect x="-83.333333" y="-150.000000" width="166.666667" height="30.000000" stroke="black" fill="none"/>
	<rect x="-83.333333" y="120.000000" width="166.666667" height="30.000000" stroke="black" fill="none"/>
	<text x="0" y="-240.000000" transform="rotate(180, 0, 0)"   style="fill: none; stroke: black;  font-size: 30.000000px;" text-anchor="middle">Digital Manufacturing</text>
	<image href="logo.svg" x="-50.000000" y="-370.000000" transform="rotate(180 0 0)" height="100.000000" width="100.000000"/>
</svg>