<svg viewBox="-500 -500 1000 1000" xmlns="http://www.w3.org/2000/svg" xmlns:xlink="http://www.w3.org/1999/xlink">
	<rect x="-500" y="-500" width="100%" height="100%" stroke="black" stroke-width="1" fill="none"/>
	<polyline points= "-200.0,-296.0 -60.0,-296.0 -60.0,-180.0 -60.0,-472.0 -20.0,-472.0 -20.0,-476.0 20.0,-476.0 20.0,-472.0 60.0,-472.0 60.0,-184.0 60.0,-300.0 200.0,-300.0 200.0,60.0 120.0,184.0 120.0,300.0 60.0,300.0 60.0,184.0 60.0,392.0 20.0,392.0 20.0,396.0 -20.0,396.0 -20.0,392.0 -60.0,392.0 -60.0,180.0 -60.0,296.0 -120.0,296.0 -120.0,180.0 -200.0,60.0 -200.0,-296.0" fill="none" stroke="black" />
	<line x1="-60.0" y1="-336.0" x2="60.0" y2="-336.0" stroke="black" stroke-dasharray="11" />
	<line x1="-60.0" y1="-328.0" x2="60.0" y2="-328.0" stroke="black" stroke-dasharray="11" />
	<line x1="-60.0" y1="-188.0" x2="60.0" y2="-188.0" stroke="black" stroke-dasharray="11" />
	<line x1="-60.0" y1="336.0" x2="60.0" y2="336.0" stroke="black" stroke-dasharray="11" />
	<line x1="-60.0" y1="328.0" x2="60.0" y2="328.0" stroke="black" stroke-dasharray="11" />
	<line x1="-60.0" y1="188.0" x2="60.0" y2="188.0" stroke="black" stroke-dasharray="11" />
	<line x1="-60.0" y1="-180.0" x2="-200.0" y2="-180.0" stroke="black" stroke-dasharray="11" />
	<line x1="-60.0" y1="180.0" x2="-120.0" y2="180.0" stroke="black" stroke-dasharray="11" />
	<line x1="60.0" y1="-184.0" x2="200.0" y2="-184.0" stroke="black" stroke-dasharray="11" />
	<line x1="60.0" y1="184.0" x2="120.0" y2="184.0" stroke="black" stroke-dasharray="11" />
	<line x1="-60.0" y1="-180.0" x2="-60.0" y2="180.0" stroke="black" stroke-dasharray="11" />
	<line x1="60.0" y1="-184.0" x2="60.0" y2="184.0" stroke="black" stroke-dasharray="11" />
	<rect x="-20.000000" y="-180.000000" width="40.000000" height="4.000000" stroke="black" fill="none"/>
	<rect x="-20.000000" y="176.000000" width="40.000000" height="4.000000" stroke="black" fill="none"/>
</svg>