<svg viewBox="-1000 -1000 2000 2000" version="1.1" xmlns="http://www.w3.org/2000/svg" xmlns:xlink="http://www.w3.org/1999/xlink">
	<polyline points= "-500.0,-670.0 -230.0,-670.0 -230.0,-360.0 -200.0,-300.0 -230.0,-360.0 -230.0,-660.0 -200.0,-720.0 -200.0,-990.0 -66.66666666666669,-990.0 -66.66666666666669,-1020.0 66.66666666666666,-1020.0 66.66666666666666,-990.0 200.0,-990.0 200.0,-720.0 230.0,-660.0 230.0,-360.0 200.0,-330.0 230.0,-360.0 230.0,-700.0 500.0,-700.0 500.0,100.0 400.0,330.0 400.0,700.0 230.0,700.0 230.0,360.0 200.0,330.0 230.0,360.0 230.0,560.0 200.0,620.0 200.0,790.0 66.66666666666666,790.0 66.66666666666666,820.0 -66.66666666666666,820.0 -66.66666666666666,790.0 -200.0,790.0 -200.0,620.0 -230.0,560.0 -230.0,360.0 -200.0,300.0 -230.0,360.0 -230.0,670.0 -400.0,670.0 -400.0,300.0 -500.0,100.0 -500.0,-670.0" fill="none" stroke="black"/>
	<line x1="-200.0" y1="-720.0" x2="200.0" y2="-720.0" stroke="black" stroke-dasharray="11"/>
	<line x1="-200.0" y1="-660.0" x2="200.0" y2="-660.0" stroke="black" stroke-dasharray="11"/>
	<line x1="-200.0" y1="-360.0" x2="200.0" y2="-360.0" stroke="black" stroke-dasharray="11"/>
	<line x1="-200.0" y1="620.0" x2="200.0" y2="620.0" stroke="black" stroke-dasharray="11"/>
	<line x1="-200.0" y1="560.0" x2="200.0" y2="560.0" stroke="black" stroke-dasharray="11"/>
	<line x1="-200.0" y1="360.0" x2="200.0" y2="360.0" stroke="black" stroke-dasharray="11"/>
	<line x1="-200.0" y1="-300.0" x2="-500.0" y2="-300.0" stroke="black" stroke-dasharray="11"/>
	<line x1="-200.0" y1="300.0" x2="-400.0" y2="300.0" stroke="black" stroke-dasharray="11"/>
	<line x1="200.0" y1="-330.0" x2="500.0" y2="-330.0" stroke="black" stroke-dasharray="11"/>
	<line x1="200.0" y1="330.0" x2="400.0" y2="330.0" stroke="black" stroke-dasharray="11"/>
	<line x1="-200.0" y1="-300.0" x2="-200.0" y2="300.0" stroke="black" stroke-dasharray="11"/>
	<line x1="200.0" y1="-330.0" x2="200.0" y2="330.0" stroke="black" stroke-dasharray="11"/>
	<rect x="-66.666667" y="-300.000000" width="133.333333" height="30.000000" stroke="black" fill="none"/>
	<rect x="-66.666667" y="270.000000" width="133.333333" height="30.000000" stroke="black" fill="none"/>
	<text x="0" y="-390.000000" transform="rotate(180, 0, 0)"   style="fill: none; stroke: black;  font-size: 30.000000px;" text-anchor="middle">Digital Manufacturing</text>
	<text x="0" y="770.000000" transform="rotate(180, 0, 0)"   style="fill: none; stroke: black;  font-size: 30.000000px;" text-anchor="middle">yyyyyyyyyyy</text>
	<text x="0" y="-490.000000" transform="rotate(180, 0, 0)"   style="fill: none; stroke: black;  font-size: 30.000000px;" text-anchor="middle">yyyyyyyyyyyyyyyyyyyy</text>
	<image href="logo.svg" x="-50.000000" y="-520.000000" transform="rotate(180 0 0)" height="100.000000" width="100.000000"/>
	<circle cx="380.000000" cy="-100.000000" r="75.000000" stroke="black" text-anchor="middle" fill="none"/>
	<circle cx="305.000000" cy="-100.000000" r="37.500000" stroke="black" text-anchor="middle" fill="none"/>
	<circle cx="267.500000" cy="-100.000000" r="18.750000" stroke="black" text-anchor="middle" fill="none"/>
	<circle cx="248.750000" cy="-100.000000" r="9.375000" stroke="black" text-anchor="middle" fill="none"/>
	<circle cx="267.500000" cy="-118.750000" r="9.375000" stroke="black" text-anchor="middle" fill="none"/>
	<circle cx="267.500000" cy="-81.250000" r="9.375000" stroke="black" text-anchor="middle" fill="none"/>
	<circle cx="305.000000" cy="-137.500000" r="18.750000" stroke="black" text-anchor="middle" fill="none"/>
	<circle cx="286.250000" cy="-137.500000" r="9.375000" stroke="black" text-anchor="middle" fill="none"/>
	<circle cx="305.000000" cy="-156.250000" r="9.375000" stroke="black" text-anchor="middle" fill="none"/>
	<circle cx="305.000000" cy="-118.750000" r="9.375000" stroke="black" text-anchor="middle" fill="none"/>
	<circle cx="305.000000" cy="-62.500000" r="18.750000" stroke="black" text-anchor="middle" fill="none"/>
	<circle cx="286.250000" cy="-62.500000" r="9.375000" stroke="black" text-anchor="middle" fill="none"/>
	<circle cx="305.000000" cy="-81.250000" r="9.375000" stroke="black" text-anchor="middle" fill="none"/>
	<circle cx="305.000000" cy="-43.750000" r="9.375000" stroke="black" text-anchor="middle" fill="none"/>
	<circle cx="380.000000" cy="-175.000000" r="37.500000" stroke="black" text-anchor="middle" fill="none"/>
	<circle cx="342.500000" cy="-175.000000" r="18.750000" stroke="black" text-anchor="middle" fill="none"/>
	<circle cx="323.750000" cy="-175.000000" r="9.375000" stroke="black" text-anchor="middle" fill="none"/>
	<circle cx="342.500000" cy="-193.750000" r="9.375000" stroke="black" text-anchor="middle" fill="none"/>
	<circle cx="342.500000" cy="-156.250000" r="9.375000" stroke="black" text-anchor="middle" fill="none"/>
	<circle cx="380.000000" cy="-212.500000" r="18.750000" stroke="black" text-anchor="middle" fill="none"/>
	<circle cx="361.250000" cy="-212.500000" r="9.375000" stroke="black" text-anchor="middle" fill="none"/>
	<circle cx="380.000000" cy="-231.250000" r="9.375000" stroke="black" text-anchor="middle" fill="none"/>
	<circle cx="380.000000" cy="-193.750000" r="9.375000" stroke="black" text-anchor="middle" fill="none"/>
	<circle cx="380.000000" cy="-137.500000" r="18.750000" stroke="black" text-anchor="middle" fill="none"/>
	<circle cx="361.250000" cy="-137.500000" r="9.375000" stroke="black" text-anchor="middle" fill="none"/>
	<circle cx="380.000000" cy="-156.250000" r="9.375000" stroke="black" text-anchor="middle" fill="none"/>
	<circle cx="380.000000" cy="-118.750000" r="9.375000" stroke="black" text-anchor="middle" fill="none"/>
	<circle cx="380.000000" cy="-25.000000" r="37.500000" stroke="black" text-anchor="middle" fill="none"/>
	<circle cx="342.500000" cy="-25.000000" r="18.750000" stroke="black" text-anchor="middle" fill="none"/>
	<circle cx="323.750000" cy="-25.000000" r="9.375000" stroke="black" text-anchor="middle" fill="none"/>
	<circle cx="342.500000" cy="-43.750000" r="9.375000" stroke="black" text-anchor="middle" fill="none"/>
	<circle cx="342.500000" cy="-6.250000" r="9.375000" stroke="black" text-anchor="middle" fill="none"/>
	<circle cx="380.000000" cy="-62.500000" r="18.750000" stroke="black" text-anchor="middle" fill="none"/>
	<circle cx="361.250000" cy="-62.500000" r="9.375000" stroke="black" text-anchor="middle" fill="none"/>
	<circle cx="380.000000" cy="-81.250000" r="9.375000" stroke="black" text-anchor="middle" fill="none"/>
	<circle cx="380.000000" cy="-43.750000" r="9.375000" stroke="black" text-anchor="middle" fill="none"/>
	<circle cx="380.000000" cy="12.500000" r="18.750000" stroke="black" text-anchor="middle" fill="none"/>
	<circle cx="361.250000" cy="12.500000" r="9.375000" stroke="black" text-anchor="middle" fill="none"/>
	<circle cx="380.000000" cy="-6.250000" r="9.375000" stroke="black" text-anchor="middle" fill="none"/>
	<circle cx="380.000000" cy="31.250000" r="9.375000" stroke="black" text-anchor="middle" fill="none"/>
</svg>