<svg viewBox="-1000 -1000 2000 2000" version="1.1" xmlns="http://www.w3.org/2000/svg" xmlns:xlink="http://www.w3.org/1999/xlink">
	<polyline points= "-260.0,-350.0 -120.0,-350.0 -120.0,-120.0 -120.0,-430.0 -40.0,-430.0 -40.0,-440.0 40.0,-440.0 40.0,-430.0 120.0,-430.0 120.0,-130.0 120.0,-360.0 260.0,-360.0 260.0,0.0 230.0,130.0 230.0,360.0 120.0,360.0 120.0,130.0 120.0,370.0 40.0,370.0 40.0,380.0 -40.0,380.0 -40.0,370.0 -120.0,370.0 -120.0,120.0 -120.0,350.0 -230.0,350.0 -230.0,120.0 -260.0,0.0 -260.0,-350.0" fill="none" stroke="black"/>
	<line x1="-120.0" y1="-300.0" x2="120.0" y2="-300.0" stroke="black" stroke-dasharray="11"/>
	<line x1="-120.0" y1="-280.0" x2="120.0" y2="-280.0" stroke="black" stroke-dasharray="11"/>
	<line x1="-120.0" y1="-140.0" x2="120.0" y2="-140.0" stroke="black" stroke-dasharray="11"/>
	<line x1="-120.0" y1="270.0" x2="120.0" y2="270.0" stroke="black" stroke-dasharray="11"/>
	<line x1="-120.0" y1="250.0" x2="120.0" y2="250.0" stroke="black" stroke-dasharray="11"/>
	<line x1="-120.0" y1="140.0" x2="120.0" y2="140.0" stroke="black" stroke-dasharray="11"/>
	<line x1="-120.0" y1="-120.0" x2="-260.0" y2="-120.0" stroke="black" stroke-dasharray="11"/>
	<line x1="-120.0" y1="120.0" x2="-230.0" y2="120.0" stroke="black" stroke-dasharray="11"/>
	<line x1="120.0" y1="-130.0" x2="260.0" y2="-130.0" stroke="black" stroke-dasharray="11"/>
	<line x1="120.0" y1="130.0" x2="230.0" y2="130.0" stroke="black" stroke-dasharray="11"/>
	<line x1="-120.0" y1="-120.0" x2="-120.0" y2="120.0" stroke="black" stroke-dasharray="11"/>
	<line x1="120.0" y1="-130.0" x2="120.0" y2="130.0" stroke="black" stroke-dasharray="11"/>
	<rect x="-40.000000" y="-120.000000" width="80.000000" height="10.000000" stroke="black" fill="none"/>
	<rect x="-40.000000" y="110.000000" width="80.000000" height="10.000000" stroke="black" fill="none"/>
	<text x="0" y="-150.000000" transform="rotate(180, 0, 0)"   style="fill: none; stroke: black;  font-size: 13px;" text-anchor="middle">Digital Manufacturing</text>
	<image href="logo.svg" x="-27.500000" y="-228.000000" transform="rotate(180 0 0)" height="55.000000" width="55.000000"/>
</svg>