<svg viewBox="-500 -500 1000 1000" xmlns="http://www.w3.org/2000/svg" xmlns:xlink="http://www.w3.org/1999/xlink">
	<rect x="-500" y="-500" width="100%" height="100%" stroke="black" stroke-width="1" fill="none"/>
	<polyline points= "-200.0,-296.0 -60.0,-296.0 -60.0,-180.0 -60.0,-472.0 -20.0,-472.0 -20.0,-476.0 20.0,-476.0 20.0,-472.0 60.0,-472.0 60.0,-184.0 60.0,-300.0 200.0,-300.0 200.0,60.0 120.0,184.0 120.0,300.0 60.0,300.0 60.0,184.0 60.0,392.0 20.0,392.0 20.0,396.0 -20.0,396.0 -20.0,392.0 -60.0,392.0 -60.0,180.0 -60.0,296.0 -120.0,296.0 -120.0,180.0 -200.0,60.0 -200.0,-296.0" fill="none" stroke="black" />
	<line x1="0" y1="3" x2="30" y2="3" stroke="black" stroke-dasharray="4" />
</svg>