<?xml version="1.0" standalone="no"?>
<!DOCTYPE svg PUBLIC "-//W3C//DTD SVG 20010904//EN"
 "http://www.w3.org/TR/2001/REC-SVG-20010904/DTD/svg10.dtd">
<svg version="1.0" xmlns="http://www.w3.org/2000/svg"
 width="1200.000000pt" height="1305.000000pt" viewBox="0 0 1200.000000 1305.000000"
 preserveAspectRatio="xMidYMid meet">

<g transform="translate(0.000000,1305.000000) scale(0.100000,-0.100000)"
fill="#000000" stroke="none">
<path d="M1912 12640 c-332 -224 -604 -411 -605 -415 -3 -9 237 -345 244 -342
22 8 1209 814 1209 820 0 7 -240 348 -243 346 -1 0 -274 -184 -605 -409z"/>
<path d="M10093 12842 c-20 -31 -70 -109 -111 -172 l-74 -114 22 -18 c12 -10
275 -190 583 -400 l561 -381 22 28 c12 16 63 88 113 161 l91 132 -278 195
c-152 106 -416 291 -585 410 l-308 216 -36 -57z"/>
<path d="M3990 12859 c-143 -25 -315 -99 -545 -234 -305 -179 -1143 -699
-2180 -1353 l-540 -341 -361 -1084 -362 -1085 52 -5 c28 -3 544 -54 1147 -113
l1095 -107 355 218 c1311 808 2319 1454 2635 1692 144 107 236 232 280 378 14
45 18 93 18 190 0 213 -8 234 -230 569 -503 757 -763 1084 -954 1196 -125 74
-275 103 -410 79z"/>
<path d="M8364 12776 c-100 -23 -136 -49 -297 -209 -176 -175 -317 -341 -469
-553 -236 -330 -487 -780 -523 -939 -27 -119 -38 -259 -26 -346 19 -139 67
-219 201 -330 41 -34 107 -92 145 -128 171 -161 620 -458 1275 -843 905 -532
1575 -869 1884 -948 148 -38 185 -30 338 74 317 213 897 1042 1070 1527 l33
94 0 210 0 210 -33 69 c-23 49 -52 88 -100 135 -262 257 -967 735 -1983 1346
-490 295 -846 497 -963 548 -188 81 -412 115 -552 83z"/>
<path d="M6040 10005 l0 -205 -209 0 -209 0 -6 -82 c-3 -46 -7 -159 -8 -253
l-3 -170 218 -3 217 -2 0 -213 0 -213 -76 -49 c-112 -73 -214 -186 -269 -298
-97 -198 -95 -455 6 -633 15 -28 65 -93 110 -144 79 -91 81 -95 75 -134 -7
-46 -35 -137 -45 -148 -4 -5 -79 1 -166 12 -553 70 -934 154 -1610 355 -243
72 -359 101 -506 125 -792 129 -1507 -117 -1702 -585 -81 -195 -113 -482 -88
-795 30 -377 116 -600 432 -1125 250 -415 345 -608 432 -880 95 -295 164 -666
183 -982 l7 -112 26 4 c14 2 357 7 761 10 404 3 1111 10 1570 15 459 6 1472
17 2250 25 778 8 1596 17 1817 21 l402 6 5 62 c3 33 8 115 11 181 7 156 31
365 55 482 44 213 166 468 413 863 355 567 540 1189 500 1679 -20 234 -84 473
-178 663 -131 261 -287 387 -570 459 -105 26 -137 30 -258 30 -205 -1 -443
-33 -819 -111 -233 -49 -282 -61 -437 -111 -361 -117 -796 -213 -1186 -264
-159 -21 -435 -45 -511 -45 l-62 0 -6 33 c-3 17 -8 61 -12 98 l-6 65 49 38
c99 75 173 197 214 351 28 107 31 301 6 395 -47 177 -170 327 -329 403 l-67
32 0 228 -1 227 225 0 225 0 0 245 0 245 -210 0 -210 0 -2 203 -3 202 -222 3
-223 2 0 -205z m-2525 -2476 c729 -55 1303 -309 1753 -773 324 -335 504 -700
544 -1102 16 -171 17 -942 0 -1077 -24 -190 -104 -387 -197 -483 -87 -89 -181
-125 -323 -125 -198 1 -436 66 -531 147 -69 58 -120 226 -129 426 l-5 116 58
7 c32 4 125 4 206 1 l149 -7 0 212 0 212 -83 -6 c-98 -8 -260 6 -335 28 -94
28 -146 93 -190 235 -11 36 -25 99 -32 141 l-12 75 -201 12 c-111 6 -202 10
-204 9 -1 -2 9 -97 22 -213 14 -115 25 -212 25 -216 0 -5 -103 -8 -229 -8
l-228 0 -7 -92 c-3 -50 -6 -145 -6 -211 l0 -120 93 6 c141 10 371 -7 437 -32
108 -40 164 -112 196 -248 40 -170 -10 -295 -141 -355 -69 -30 -232 -37 -325
-13 -303 78 -602 377 -891 890 -170 302 -549 1158 -608 1375 -73 267 -71 449
9 662 82 221 326 423 605 503 147 41 279 47 580 24z m5920 6 c147 -14 342 -88
469 -179 122 -87 252 -245 292 -357 29 -82 54 -214 54 -289 -1 -266 -46 -424
-263 -920 -361 -826 -549 -1147 -836 -1430 -209 -205 -371 -289 -582 -298
-180 -8 -275 38 -319 156 -31 81 -25 213 12 294 31 67 98 142 150 169 49 25
185 38 397 39 l164 0 -6 68 c-4 37 -7 131 -7 210 l0 142 -228 0 c-126 0 -231
2 -233 4 -3 3 6 100 19 216 13 116 22 213 20 215 -2 2 -93 -1 -203 -8 l-199
-12 -17 -95 c-38 -214 -92 -307 -201 -348 -71 -27 -246 -44 -350 -36 l-78 7 0
-211 0 -210 188 2 c103 0 194 -2 202 -5 13 -5 14 -26 9 -130 -7 -129 -36 -274
-70 -340 -25 -49 -91 -107 -158 -136 -121 -54 -373 -94 -505 -81 -238 23 -412
272 -446 638 -15 157 -15 808 0 995 19 246 63 410 165 620 237 488 749 935
1290 1129 290 103 632 168 975 185 153 7 179 7 295 -4z"/>
<path d="M3935 9075 c-314 -207 -574 -382 -579 -389 -15 -22 67 -139 164 -237
246 -244 704 -462 1322 -628 186 -49 442 -105 457 -99 4 2 -37 89 -92 193
-266 506 -578 1195 -672 1483 -9 28 -20 52 -23 52 -4 0 -264 -169 -577 -375z"/>
<path d="M7961 9298 c-29 -127 -108 -374 -162 -505 -130 -314 -342 -673 -564
-958 -47 -60 -81 -111 -76 -113 17 -6 325 57 513 104 508 128 916 303 1199
516 97 74 246 229 281 294 l27 50 -587 355 c-322 195 -591 355 -597 357 -6 1
-21 -41 -34 -100z"/>
<path d="M2833 2953 c4 -38 7 -166 7 -285 l0 -218 3415 0 3415 0 0 285 0 285
-3421 0 -3422 0 6 -67z"/>
<path d="M3125 1550 c-259 -347 -470 -635 -470 -641 0 -6 54 -46 120 -88 519
-333 1194 -761 1207 -766 19 -8 43 23 125 160 147 244 419 761 779 1478 l244
487 -768 0 -768 0 -469 -630z"/>
<path d="M7398 2148 c101 -168 417 -783 787 -1531 154 -312 283 -567 287 -567
3 0 267 167 585 372 318 204 608 391 645 414 l68 44 -114 172 c-128 194 -407
658 -566 940 l-105 187 -803 1 -804 0 20 -32z"/>
</g>
</svg>
